<mxfile host="app.diagrams.net" modified="2022-01-12T09:20:53.494Z" agent="5.0 (Windows NT 10.0; Win64; x64) AppleWebKit/537.36 (KHTML, like Gecko) Chrome/97.0.4692.71 Safari/537.36" etag="xHLCfqJooSIX-SSY6PfX" version="16.2.4" type="github">
  <diagram id="EJLlZS2oWOCZso0ce7Iy" name="Page-1">
    <mxGraphModel dx="1422" dy="882" grid="1" gridSize="10" guides="1" tooltips="1" connect="1" arrows="1" fold="1" page="1" pageScale="1" pageWidth="827" pageHeight="1169" math="0" shadow="0">
      <root>
        <mxCell id="0" />
        <mxCell id="1" parent="0" />
        <mxCell id="U9zrnb_ijNc3VTqavtRG-4" value="资源宝板子" style="rounded=0;whiteSpace=wrap;html=1;horizontal=1;align=left;verticalAlign=top;" vertex="1" parent="1">
          <mxGeometry x="20" y="20" width="520" height="300" as="geometry" />
        </mxCell>
      </root>
    </mxGraphModel>
  </diagram>
</mxfile>
